<?xml version="1.0" encoding="UTF-8" standalone="no"?>
<svg
   viewBox="0 0 384 512"
   version="1.1"
   id="svg4"
   sodipodi:docname="angles-up-solid.svg"
   inkscape:version="1.1 (c68e22c387, 2021-05-23)"
   xmlns:inkscape="http://www.inkscape.org/namespaces/inkscape"
   xmlns:sodipodi="http://sodipodi.sourceforge.net/DTD/sodipodi-0.dtd"
   xmlns="http://www.w3.org/2000/svg"
   xmlns:svg="http://www.w3.org/2000/svg">
  <defs
     id="defs8" />
  <sodipodi:namedview
     id="namedview6"
     pagecolor="#ffffff"
     bordercolor="#666666"
     borderopacity="1.0"
     inkscape:pageshadow="2"
     inkscape:pageopacity="0.0"
     inkscape:pagecheckerboard="0"
     showgrid="false"
     inkscape:zoom="1.015625"
     inkscape:cx="191.50769"
     inkscape:cy="255.50769"
     inkscape:window-width="1920"
     inkscape:window-height="1017"
     inkscape:window-x="-8"
     inkscape:window-y="-8"
     inkscape:window-maximized="1"
     inkscape:current-layer="svg4" />
  <!--! Font Awesome Pro 6.1.1 by @fontawesome - https://fontawesome.com License - https://fontawesome.com/license (Commercial License) Copyright 2022 Fonticons, Inc. -->
  <path
     d="M54.63 246.6L192 109.3l137.4 137.4C335.6 252.9 343.8 256 352 256s16.38-3.125 22.62-9.375c12.5-12.5 12.5-32.75 0-45.25l-160-160c-12.5-12.5-32.75-12.5-45.25 0l-160 160c-12.5 12.5-12.5 32.75 0 45.25S42.13 259.1 54.63 246.6zM214.6 233.4c-12.5-12.5-32.75-12.5-45.25 0l-160 160c-12.5 12.5-12.5 32.75 0 45.25s32.75 12.5 45.25 0L192 301.3l137.4 137.4C335.6 444.9 343.8 448 352 448s16.38-3.125 22.62-9.375c12.5-12.5 12.5-32.75 0-45.25L214.6 233.4z"
     id="path2" />
  <path
     style="font-variation-settings:normal;opacity:1;vector-effect:none;fill:#9f496e;fill-opacity:1;stroke:none;stroke-width:0.969467;stroke-linecap:butt;stroke-linejoin:miter;stroke-miterlimit:4;stroke-dasharray:none;stroke-dashoffset:0;stroke-opacity:1;-inkscape-stroke:none;stop-color:#000000;stop-opacity:1"
     d="m 347.30486,254.88437 c -10.52869,-1.55979 -10.10007,-1.17725 -84.65556,-75.55697 l -70.643,-70.47646 -70.6493,70.47149 C 65.419048,235.11959 49.682556,250.2863 45.784615,252.15849 38.780665,255.52253 25.2558,255.566 18.515818,252.24612 2.869067,244.53913 -3.508931,225.96264 3.9943293,209.95102 5.6980893,206.31527 24.470994,186.97862 89.488732,121.88923 183.17316,28.101572 177.52706,32.997531 192,32.997531 c 14.47294,0 8.82684,-4.895959 102.51127,88.891699 66.64681,66.72026 83.78139,84.38782 85.66154,88.32615 3.34857,7.01422 3.38496,20.54553 0.0733,27.2688 -6.04202,12.26651 -19.52398,19.38793 -32.94127,17.40019 z"
     id="path862" />
  <path
     style="font-variation-settings:normal;opacity:1;vector-effect:none;fill:#9f496e;fill-opacity:1;stroke:none;stroke-width:0.954552;stroke-linecap:butt;stroke-linejoin:miter;stroke-miterlimit:4;stroke-dasharray:none;stroke-dashoffset:0;stroke-opacity:1;-inkscape-stroke:none;stop-color:#000000;stop-opacity:1"
     d="M 27.304864,446.88437 C 10.482143,444.39213 -1.3955799,428.25561 1.1156246,411.30486 2.6936773,400.65294 1.4390807,402.03591 89.488732,313.88923 183.17316,220.10157 177.52706,224.99753 192,224.99753 c 14.47294,0 8.82684,-4.89596 102.51127,88.8917 66.64681,66.72026 83.78139,84.38782 85.66154,88.32615 3.34857,7.01422 3.38496,20.54553 0.0733,27.2688 -7.7091,15.65102 -26.31212,22.03402 -42.29512,14.51216 -3.60279,-1.69552 -20.67142,-18.16742 -75.30489,-72.67208 L 192,300.84464 121.35385,371.32426 c -54.080255,53.95276 -71.722356,70.98586 -75.235663,72.63857 -5.802483,2.72957 -12.787407,3.81427 -18.813323,2.92154 z"
     id="path3194" />
</svg>
